HIERARCHY
ROOT SpineBase
{
  OFFSET 0.000000 0.000000 0.000000
  CHANNELS 6 Xposition Yposition Zposition Zrotation Xrotation Yrotation
  JOINT SpineMid
  {
    OFFSET 0.000000 27.008261 -0.000000
    CHANNELS 3 Zrotation Xrotation Yrotation
    JOINT SpineShoulder
    {
      OFFSET -0.167780 20.206055 -0.699370
      CHANNELS 3 Zrotation Xrotation Yrotation
      JOINT Neck
      {
        OFFSET -0.074734 6.740831 -0.517263
        CHANNELS 3 Zrotation Xrotation Yrotation
        JOINT Head
        {
          OFFSET -2.245823 12.087476 1.419998
          CHANNELS 3 Zrotation Xrotation Yrotation
          End Site
          {
            OFFSET 0 0 0
          }
        }
      }
      JOINT ShoulderLeft
      {
        OFFSET -11.634280 -2.699665 4.856889
        CHANNELS 3 Zrotation Xrotation Yrotation
        JOINT ElbowLeft
        {
          OFFSET -2.575027 -24.513769 -5.177094
          CHANNELS 3 Zrotation Xrotation Yrotation
          JOINT WristLeft
          {
            OFFSET -1.552368 -16.386195 -12.988679
            CHANNELS 3 Zrotation Xrotation Yrotation
            JOINT HandLeft
            {
              OFFSET -0.519020 -1.279219 -4.707848
              CHANNELS 3 Zrotation Xrotation Yrotation
              JOINT HandTipLeft
              {
                OFFSET -0.130837 -2.300472 -2.590000
                CHANNELS 3 Zrotation Xrotation Yrotation
                End Site
                {
                  OFFSET 0 0 0
                }
              }
              JOINT ThumbLeft
              {
                OFFSET -1.500722 1.987305 -2.031345
                CHANNELS 3 Zrotation Xrotation Yrotation
                End Site
                {
                  OFFSET 0 0 0
                }
              }
            }
          }
        }
      }
      JOINT ShoulderRight
      {
        OFFSET 10.860156 -2.655729 -8.859523
        CHANNELS 3 Zrotation Xrotation Yrotation
        JOINT ElbowRight
        {
          OFFSET 2.364602 -22.522317 -5.350033
          CHANNELS 3 Zrotation Xrotation Yrotation
          JOINT WristRight
          {
            OFFSET -2.174127 -19.729691 -7.989967
            CHANNELS 3 Zrotation Xrotation Yrotation
            JOINT HandRight
            {
              OFFSET -2.980882 -5.755508 -3.313916
              CHANNELS 3 Zrotation Xrotation Yrotation
              JOINT HandTipRight
              {
                OFFSET -1.315219 -4.739836 -1.391446
                CHANNELS 3 Zrotation Xrotation Yrotation
                End Site
                {
                  OFFSET 0 0 0
                }
              }
              JOINT ThumbRight
              {
                OFFSET -0.719643 -4.235678 -0.671034
                CHANNELS 3 Zrotation Xrotation Yrotation
                End Site
                {
                  OFFSET 0 0 0
                }
              }
            }
          }
        }
      }
    }
  }
  JOINT HipLeft
  {
    OFFSET -5.580800 0.692660 -0.606154
    CHANNELS 3 Zrotation Xrotation Yrotation
    JOINT KneeLeft
    {
      OFFSET -1.030782 -28.540976 -4.891905
      CHANNELS 3 Zrotation Xrotation Yrotation
      JOINT AnkleLeft
      {
        OFFSET 9.527765 -36.000343 16.297662
        CHANNELS 3 Zrotation Xrotation Yrotation
        JOINT FootLeft
        {
          OFFSET -3.630984 -6.136218 0.016787
          CHANNELS 3 Zrotation Xrotation Yrotation
          End Site
          {
            OFFSET 0 0 0
          }
        }
      }
    }
  }
  JOINT HipRight
  {
    OFFSET 5.013927 1.306132 -5.424828
    CHANNELS 3 Zrotation Xrotation Yrotation
    JOINT KneeRight
    {
      OFFSET 3.866064 -28.565825 -6.241411
      CHANNELS 3 Zrotation Xrotation Yrotation
      JOINT AnkleRight
      {
        OFFSET 0.765362 -31.221123 2.171702
        CHANNELS 3 Zrotation Xrotation Yrotation
        JOINT FootRight
        {
          OFFSET -4.348000 -1.955702 -9.755543
          CHANNELS 3 Zrotation Xrotation Yrotation
          End Site
          {
            OFFSET 0 0 0
          }
        }
      }
    }
  }
}
MOTION
Frames: 8
Frame Time: 0.033333
33.079807 88.952563 359.240678 -0.000000 -0.000000 24.456900 0.000000 0.000000 -24.456900 -0.000000 0.000000 0.000000 -0.000000 0.000000 0.000000 0.000000 0.000000 0.000000 -0.000000 0.000000 0.000000 -0.000000 0.000000 0.000000 -0.000000 0.000000 0.000000 -0.000000 0.000000 0.000000 0.000000 0.000000 0.000000 0.000000 0.000000 0.000000 -0.000000 0.000000 0.000000 -0.000000 0.000000 0.000000 -0.000000 0.000000 0.000000 -0.000000 0.000000 0.000000 0.000000 0.000000 0.000000 0.000000 0.000000 0.000000 0.000000 0.000000 -24.456900 -0.000000 0.000000 0.000000 -0.000000 0.000000 0.000000 0.000000 0.000000 0.000000 0.000000 0.000000 -24.456900 -0.000000 0.000000 0.000000 -0.000000 0.000000 0.000000 0.000000 0.000000 0.000000
33.547931 89.066423 358.738635 0.453278 0.221628 25.236799 -0.504507 -0.007210 -25.237708 -0.000000 0.000000 0.000000 -0.000000 0.000000 0.000000 0.000000 0.000000 0.000000 -0.000000 0.000000 0.000000 -0.571277 2.898473 0.188762 3.000715 -11.730600 -7.389305 -4.329554 11.494205 8.095855 0.000000 0.000000 0.000000 0.000000 0.000000 0.000000 -1.597138 0.954086 0.492628 -2.902688 1.849481 1.070090 1.352195 1.397961 -1.760189 1.440351 -6.553840 1.461927 0.000000 0.000000 0.000000 0.000000 0.000000 0.000000 -1.440728 0.431329 -25.057008 0.693797 -0.699630 -0.516841 4.155773 2.691253 -0.956822 0.000000 0.000000 0.000000 -1.632778 -0.532364 -25.198240 0.797437 0.955457 -0.051430 -0.000000 0.000000 0.000000 0.000000 0.000000 0.000000
33.953190 89.166197 358.353259 0.850624 0.369290 25.901752 -0.926485 0.039410 -25.904175 -0.000000 0.000000 0.000000 -0.000000 0.000000 0.000000 0.000000 0.000000 0.000000 1.112756 0.684801 -0.313520 -2.188536 4.073483 0.702534 4.640941 -21.649388 -13.256902 -9.136910 20.012528 15.268801 0.000000 0.000000 0.000000 0.000000 0.000000 0.000000 -2.919842 1.742531 0.920233 -5.560578 3.422290 2.114678 2.663262 2.285416 -3.012477 2.638250 -11.764395 2.448418 0.000000 0.000000 0.000000 0.000000 0.000000 0.000000 -2.698927 0.547545 -25.572328 1.172244 -0.901894 -0.939114 7.491655 5.578165 -2.433199 0.000000 0.000000 0.000000 -3.018975 -0.865785 -25.827916 1.489791 1.725911 -0.113792 -0.000000 0.000000 0.000000 0.000000 0.000000 0.000000
34.295583 89.251887 358.084551 1.191680 0.442678 26.452359 -1.264094 0.134558 -26.455478 -0.000000 0.000000 0.000000 0.741640 -0.449233 -0.167562 0.000000 0.000000 0.000000 1.589831 0.591904 -0.406316 -3.073724 5.022891 1.036585 5.256862 -29.593206 -17.956386 -13.303504 25.820092 20.998069 0.000000 0.000000 0.000000 0.000000 0.000000 0.000000 -3.982031 2.380699 1.277349 -7.860180 4.674312 3.060601 3.771800 2.634485 -3.788207 3.503954 -15.555476 2.958227 0.000000 0.000000 0.000000 0.000000 0.000000 0.000000 -3.779068 0.331378 -26.009832 1.431814 -0.609082 -1.265459 9.855083 8.616966 -4.319208 0.000000 0.000000 0.000000 -4.147206 -1.016284 -26.338109 2.074876 2.309378 -0.181385 -0.000000 0.000000 0.000000 0.000000 0.000000 0.000000
34.575110 89.323493 357.932511 1.476152 0.441553 26.888789 -0.646766 0.183004 -26.863464 -0.816703 -0.311804 -0.033078 0.897603 -0.544984 -0.202257 0.000000 0.000000 0.000000 2.013533 0.219799 -0.452886 -3.808827 5.259760 1.356303 5.087440 -35.742269 -21.743489 -16.034856 29.544203 24.806468 0.000000 0.000000 0.000000 0.000000 0.000000 0.000000 -4.795135 2.881203 1.560380 -9.739856 5.599379 3.855254 4.579341 2.413266 -4.124344 3.986961 -17.872514 2.988306 0.000000 0.000000 0.000000 0.000000 0.000000 0.000000 -4.683645 -0.228076 -26.375237 1.470339 0.174373 -1.491699 11.139006 11.773367 -6.473059 0.000000 0.000000 0.000000 -5.010056 -0.998070 -26.723681 2.551259 2.705455 -0.249517 -0.076304 -0.223275 0.884136 0.000000 0.000000 0.000000
34.791772 89.381013 357.897139 1.703798 0.365738 27.210692 -0.684137 0.253580 -27.179417 -0.121933 -0.143473 0.031869 0.149420 -0.748495 -0.292704 0.000000 0.000000 0.000000 1.526358 -0.558900 -0.514530 -4.386503 4.772240 1.661078 4.300482 -40.423789 -24.729790 -16.976797 31.851849 26.427350 0.000000 0.000000 0.000000 0.000000 0.000000 0.000000 -6.220831 3.126858 1.686242 -11.177435 6.212658 4.467609 5.047916 1.559250 -4.049259 4.070193 -18.644616 2.542962 0.000000 0.000000 0.000000 0.000000 0.000000 0.000000 -5.412763 -1.135073 -26.672595 1.286751 1.441530 -1.610812 11.283924 15.009302 -8.729438 0.000000 0.000000 0.000000 -5.603722 -0.823016 -26.981789 2.918215 2.914988 -0.314581 -0.073524 -0.290138 1.023056 0.000000 0.000000 0.000000
34.985189 89.454154 357.862219 1.921144 0.315099 27.426353 -0.694900 0.328532 -27.388989 -0.104076 -0.128536 0.040880 -0.029387 -0.766982 -0.308301 0.000000 0.000000 0.000000 1.750531 -1.318543 -0.519794 -4.651540 2.966781 1.817710 2.781114 -45.631193 -25.374571 -15.879997 35.584964 23.962828 0.000000 0.000000 0.000000 0.000000 0.000000 0.000000 -6.531733 3.183717 1.712307 -12.166624 6.665827 4.894715 3.100600 -0.671489 -2.424780 5.440959 -14.599248 -0.051323 0.000000 0.000000 0.000000 0.000000 0.000000 0.000000 -5.924752 -2.874664 -26.974645 0.670390 2.905982 -1.678770 7.455079 19.840177 -10.913726 0.000000 0.000000 0.000000 -6.168717 -0.719038 -27.147141 3.242146 3.146417 -0.368082 -0.080800 -0.355736 1.210495 0.000000 0.000000 0.000000
35.103049 89.513181 357.972617 2.059855 0.161524 27.588168 -0.627102 0.419162 -27.543938 -0.064477 -0.070248 0.050762 -0.284054 -0.840470 -0.328005 0.000000 0.000000 0.000000 1.849491 -2.748635 -0.407224 -4.893596 0.489205 2.140123 0.321947 -50.345805 -28.169725 -17.687888 40.182980 25.184135 0.000000 0.000000 0.000000 0.000000 0.000000 0.000000 -6.747457 3.256586 1.713449 -12.553426 6.524259 5.028098 1.625067 -2.014782 -1.280506 4.040624 -9.626654 -1.819798 0.000000 0.000000 0.000000 0.000000 0.000000 0.000000 -6.471473 -4.799805 -27.227498 -0.080360 5.667717 -1.512264 5.296479 22.373054 -12.419288 0.000000 0.000000 0.000000 -6.460704 -0.400592 -27.227790 3.504112 3.161466 -0.430235 -0.052421 -0.404961 1.181215 0.000000 0.000000 0.000000
